<?xml version="1.0" encoding="UTF-8"?>
<svg xmlns="http://www.w3.org/2000/svg" xmlns:xlink="http://www.w3.org/1999/xlink" viewBox="0 0 131.160466 47" version="1.1">
  <title>logotipo_FIVB</title>
  <g id="Page-1" stroke="none" stroke-width="1" fill="none" fill-rule="evenodd">
    <g id="Elements" transform="translate(-28.178100, -26.795000)" fill="#FFFFFF">
      <g id="logotipo_FIVB" transform="translate(28.178100, 26.795000)">
        <polygon id="Fill-2" points="46.1493502 29.1470822 53.706126 29.1470822 53.706126 0 46.1493502 0"></polygon>
        <path d="M21.8605082,29.1470822 L29.417284,29.1470822 L29.417284,17.2730314 L41.2918963,17.2730314 L41.2918963,10.7957149 L21.8605082,10.7957149 L21.8605082,29.1470822 Z M21.8605082,6.47731659 L43.450253,6.47731659 L43.450253,0.000561633277 L21.8605082,0.000561633277 L21.8605082,6.47731659 Z" id="Fill-3"></path>
        <g id="Group-8" transform="translate(0.000000, 0.000112)">
          <path d="M106.412657,14.1947195 C107.501664,13.3539544 109.301137,11.5207834 109.301137,8.56209931 C109.301137,3.20074805 105.785313,0 99.8965878,0 L76.0232421,0 L70.4804832,18.4709952 L70.3956766,18.4709952 L64.8529178,0 L56.40483,0 L56.40483,6.47731659 L59.1051628,6.47731659 L66.6703631,29.1470822 L74.2063584,29.1470822 L81.770997,6.47731659 L99.0732334,6.47731659 C101.397272,6.47731659 101.7438,7.99878114 101.7438,8.90525725 C101.7438,9.81285662 101.397272,11.3343212 99.0732334,11.3343212 L86.0910802,11.3343212 L86.0910802,17.8116378 L99.4029121,17.8116378 C101.726389,17.8116378 102.072917,19.3336639 102.072917,20.2395784 C102.072917,21.1477394 101.726389,22.669204 99.4029121,22.669204 L86.0910802,22.669204 L86.0910802,29.1470822 L100.498097,29.1470822 C106.088595,29.1470822 109.70102,25.7233657 109.70102,20.4232325 C109.70102,16.6310846 107.68251,15.0169506 106.412657,14.1947195" id="Fill-4"></path>
          <path d="M65.5813562,35.623444 C42.0809349,35.623444 19.8357641,39.5363431 3.19251556e-14,46.5140749 L3.19251556e-14,46.9998877 C20.2727148,42.0990757 42.4044357,39.4015511 65.5807945,39.4015511 C88.7571534,39.4015511 110.888313,42.0990757 131.160466,46.9987644 L131.160466,46.5129516 C111.325825,39.5363431 89.0812158,35.623444 65.5813562,35.623444" id="Fill-6"></path>
        </g>
        <polygon id="Fill-9" points="110.069339 29.1402303 110.069339 26.7583435 109.280806 26.7583435 109.280806 26.4410207 111.164524 26.4410207 111.164524 26.7583435 110.381607 26.7583435 110.381607 29.1402303"></polygon>
        <path d="M111.481173,29.1402303 L111.481173,26.4410207 L111.95463,26.4410207 L112.531989,28.3550669 C112.575234,28.5302965 112.614549,28.6645269 112.640384,28.7476486 C112.672397,28.6510477 112.713396,28.5117626 112.770121,28.3129445 L113.35085,26.4410207 L113.773198,26.4410207 L113.773198,29.1402303 L113.469355,29.1402303 L113.469355,26.8807796 L112.760012,29.1402303 L112.480318,29.1402303 L111.791756,26.8409036 L111.791756,29.1402303 L111.481173,29.1402303 Z" id="Fill-10"></path>
      </g>
    </g>
  </g>
</svg>
